<svg xmlns="http://www.w3.org/2000/svg" width="64" height="64" fill="none" viewBox="0 0 24.615 24.615"><defs><linearGradient id="a" x1=".05" x2="1" y2="1" gradientTransform="scale(22)" gradientUnits="userSpaceOnUse"><stop offset=".2" stop-color="#00baba" style="stop-color:#516772;stop-opacity:1"/><stop offset=".205" stop-color="#485e68" style="stop-color:#1f292d;stop-opacity:1"/><stop offset="1" stop-color="#35454c" style="stop-color:#41535a;stop-opacity:1"/></linearGradient></defs><g transform="translate(.706 .7)scale(.96683)"><rect width="22" height="22" x="1" y="1" fill="url(#a)" stroke="gray" stroke-opacity=".2" opacity=".9" rx="6.6" style="fill:url(#a);-inkscape-stroke:hairline" vector-effect="non-scaling-stroke"/><g style="fill:#80d98d;fill-opacity:1;stroke-width:.663346"><path fill="#fafafa" d="M4.924 3.295h-.627a.044.044 0 0 0-.045.043c0 .024.02.044.045.044h.627c.025 0 .045-.02.045-.044a.044.044 0 0 0-.045-.043m-.896-.78-.025.004a.04.04 0 0 0-.025.033.04.04 0 0 0 .01.032l.012.01.482.267L4 3.128a.04.04 0 0 0-.02.027.04.04 0 0 0 .004.032c.013.02.04.028.061.016l.544-.301a.04.04 0 0 0 .016-.016.04.04 0 0 0 .005-.02v-.008a.04.04 0 0 0-.005-.021.04.04 0 0 0-.016-.016l-.544-.301Z" style="fill:#80d98d;fill-opacity:1;stroke-width:.175511" transform="translate(-21.432 -1.709)scale(6.46306)"/></g><text x="11.988" y="10.949" fill="#00d9d9" stroke-width=".881" font-family="Lato" font-size="10" font-weight="bold" opacity=".9" style="fill:#80d98d;fill-opacity:1" text-anchor="middle"><tspan font-size="4.847" style="fill:#80d98d;fill-opacity:1">GRUB</tspan></text><path d="M18.71 13.375v1.872a5 5 0 0 0-5 4.995c-.005 1.034.112 1.928.713 2.768.89-.025 1.106.014 1.936-.012-.732-.604-.81-1.808-.774-2.756 0-1.835 1.285-3.12 3.124-3.12v1.871l3.747-2.81z" style="fill:#f2f2f2;fill-opacity:1;stroke-width:2.37828;paint-order:markers stroke fill"/></g></svg>