<?xml version="1.0" encoding="UTF-8" standalone="no"?>
<!-- Created with Inkscape (http://www.inkscape.org/) -->

<svg
   width="24"
   height="24"
   viewBox="0 0 6.3499998 6.3499999"
   version="1.1"
   id="svg1899"
   xml:space="preserve"
   inkscape:version="1.3 (0e150ed6c4, 2023-07-21)"
   sodipodi:docname="grub-icon.svg"
   inkscape:export-filename="grub-icon_new.svg"
   inkscape:export-xdpi="96"
   inkscape:export-ydpi="96"
   xmlns:inkscape="http://www.inkscape.org/namespaces/inkscape"
   xmlns:sodipodi="http://sodipodi.sourceforge.net/DTD/sodipodi-0.dtd"
   xmlns:xlink="http://www.w3.org/1999/xlink"
   xmlns="http://www.w3.org/2000/svg"
   xmlns:svg="http://www.w3.org/2000/svg"><sodipodi:namedview
     id="namedview1901"
     pagecolor="#ffffff"
     bordercolor="#666666"
     borderopacity="1.0"
     inkscape:showpageshadow="2"
     inkscape:pageopacity="0.0"
     inkscape:pagecheckerboard="0"
     inkscape:deskcolor="#d1d1d1"
     inkscape:document-units="mm"
     showgrid="false"
     inkscape:zoom="17.158845"
     inkscape:cx="-2.5934146"
     inkscape:cy="1.7775089"
     inkscape:window-width="3440"
     inkscape:window-height="1358"
     inkscape:window-x="2560"
     inkscape:window-y="0"
     inkscape:window-maximized="1"
     inkscape:current-layer="layer1"><inkscape:page
       x="0"
       y="0"
       width="6.3499999"
       height="6.3499999"
       id="page2"
       margin="0"
       bleed="0" /></sodipodi:namedview><defs
     id="defs1896"><style
       id="style125">.cls-1{fill:#2b91c9;}.cls-2{fill:#02679a;}.cls-3{fill:#fff;stroke:#231f20;}.cls-3,.cls-5{stroke-miterlimit:10;}.cls-4{font-size:37.88px;font-family:Lato-Bold, Lato;font-weight:700;}.cls-4,.cls-6{fill:#002b44;}.cls-5{fill:none;stroke:#002b44;stroke-width:6px;}</style><style
       id="style2805">.cls-1{fill:#069;}.cls-2{fill:#2991c9;}.cls-3{fill:#fff;}.cls-4{fill:#002a44;}.cls-5{fill:#3380cc;}.cls-6{fill:#cc5e55;}</style><linearGradient
       id="linearGradient13"
       inkscape:collect="always"><stop
         style="stop-color:#1c1d25;stop-opacity:1;"
         offset="0"
         id="stop13" /><stop
         style="stop-color:#1c1d25;stop-opacity:1"
         offset="0.99989998"
         id="stop15" /><stop
         style="stop-color:#2a7fff;stop-opacity:1"
         offset="1"
         id="stop14" /></linearGradient><linearGradient
       inkscape:collect="always"
       xlink:href="#linearGradient13"
       id="linearGradient14"
       x1="18"
       y1="18"
       x2="4.0198512"
       y2="3.8411913"
       gradientUnits="userSpaceOnUse"
       gradientTransform="scale(0.35277776)" /><clipPath
       id="a0b909d288"><path
         d="M 5.984375,55.429688 H 132.66797 V 182.11328 H 5.984375 Z m 0,0"
         clip-rule="nonzero"
         id="path1" /></clipPath></defs><g
     inkscape:label="Camada 1"
     inkscape:groupmode="layer"
     id="layer1"><path
       id="path3-3"
       d="m 2.0104805,0.26458332 h 2.3290387 c 0.9673166,0 1.7458972,0.77858048 1.7458972,1.74589718 v 2.3290387 c 0,0.9673166 -0.7785806,1.7458972 -1.7458972,1.7458972 H 2.0104805 c -0.9673167,0 -1.74589718,-0.7785806 -1.74589718,-1.7458972 V 2.0104805 c 0,-0.9673167 0.77858048,-1.74589718 1.74589718,-1.74589718 z"
       style="fill:url(#linearGradient14);fill-opacity:1;stroke:none;stroke-width:0.352778" /><path
       id="path30"
       style="fill:#2a7fff;fill-opacity:1;stroke-width:0.619633;paint-order:markers stroke fill"
       d="m 4.4958797,0.30465985 0.00717,0.48767143 a 1.301084,1.3035631 89.157811 0 1 1.322655,1.28129512 l 8.9e-6,6.021e-4 A 1.301084,1.3035631 89.157811 0 1 5.5972469,2.8267157 C 5.4156083,2.803423 5.2355607,2.7695378 5.0575808,2.7256523 5.2362133,2.5790772 5.3411057,2.3531008 5.3371119,2.0814114 5.3300719,1.602502 4.990204,1.2729474 4.5102173,1.2800032 L 4.5173873,1.7676746 3.529433,1.0505324 Z" /><path
       id="path30-5"
       style="fill:#2a7fff;fill-opacity:1;stroke-width:0.619633;paint-order:markers stroke fill"
       d="M 1.7839173,6.0860325 V 5.5983084 A 1.3035631,1.301084 0 0 1 0.48023829,4.2977106 V 4.2971085 A 1.3035631,1.301084 0 0 1 0.71973949,3.5480606 C 0.90101609,3.5740206 1.0805461,3.6105486 1.2578617,3.6570454 1.0770941,3.800979 0.96889162,4.0253893 0.96889162,4.297108 c 0,0.4789612 0.33498708,0.8134758 0.81502568,0.8134758 V 4.6228597 L 2.761224,5.3544458 Z" /><g
       clip-path="url(#a0b909d288)"
       id="g3"
       transform="matrix(0.02650911,0,0,0.02650911,1.3372249,0.02647365)"
       style="fill:#ffffff"><path
         fill="#212121"
         d="m 69.328125,144.89453 c -14.429687,0 -26.125,-11.69531 -26.125,-26.125 0,-14.42578 11.695313,-26.121092 26.125,-26.121092 14.425781,0 26.121094,11.695312 26.121094,26.121092 0,14.42969 -11.695313,26.125 -26.121094,26.125 z m 59.917965,-38.33594 -11.69531,-1.38671 c -1.05469,-3.75782 -2.55469,-7.414068 -4.5039,-10.89063 l 7.28515,-9.242188 c 1.21875,-1.542968 1.08594,-3.753906 -0.30078,-5.140624 L 108.19922,68.066406 c -1.38672,-1.386718 -3.59766,-1.519531 -5.14063,-0.300781 l -9.242184,7.285156 C 90.339844,73.101562 86.679688,71.601562 82.925781,70.546875 L 81.542969,58.847656 C 81.308594,56.898438 79.65625,55.429688 77.691406,55.429688 H 60.960938 c -1.964844,0 -3.617188,1.46875 -3.847657,3.417968 L 55.726562,70.546875 C 51.96875,71.601562 48.3125,73.101562 44.835938,75.050781 l -9.246094,-7.285156 c -1.539063,-1.21875 -3.75,-1.085937 -5.136719,0.300781 L 18.621094,79.898438 c -1.386719,1.386718 -1.519532,3.597656 -0.300782,5.140624 l 7.285157,9.242188 c -1.949219,3.476562 -3.449219,7.13281 -4.503907,10.89063 l -11.699218,1.38671 c -1.949219,0.23047 -3.417969,1.88282 -3.417969,3.84766 v 16.73047 c 0,1.96484 1.46875,3.61719 3.417969,3.84765 l 11.699218,1.38672 c 1.054688,3.75391 2.554688,7.41407 4.503907,10.89063 l -7.285157,9.24219 c -1.21875,1.54296 -1.085937,3.7539 0.300782,5.14062 l 11.832031,11.83203 c 1.386719,1.38672 3.597656,1.51953 5.136719,0.30078 l 9.246094,-7.28515 c 3.476562,1.94922 7.132812,3.44922 10.890624,4.5039 l 1.386719,11.69532 c 0.230469,1.95312 1.882813,3.42187 3.847657,3.42187 h 16.453124 c 1.929688,0 3.566407,-1.41797 3.835938,-3.33203 l 1.675781,-11.78516 c 3.753907,-1.05468 7.414063,-2.55468 10.890625,-4.5039 l 9.242184,7.28515 c 1.54297,1.21875 3.75391,1.08594 5.14063,-0.30078 l 11.83203,-11.83203 c 1.38672,-1.38672 1.51953,-3.59766 0.30078,-5.14062 l -7.28515,-9.24219 c 1.94921,-3.47656 3.44921,-7.13672 4.5039,-10.89063 l 11.69531,-1.38672 c 1.95313,-0.23046 3.42188,-1.88281 3.42188,-3.84765 v -16.73047 c 0,-1.96484 -1.46875,-3.61719 -3.42188,-3.84766"
         fill-opacity="1"
         fill-rule="nonzero"
         id="path3-6"
         style="fill:#ffffff" /></g></g><style
     type="text/css"
     id="style222">
	.st0{display:none;}
	.st1{fill:#D8D8D8;}
	.st2{fill:#999999;}
	.st3{fill:#CC5E55;}
	.st4{fill:#FFC328;}
	.st5{fill:#006699;}
	.st6{fill:#33CC33;}
	.st7{fill:#002A44;}
	.st8{fill:#FFFFFF;}
	.st9{fill:#2991C9;}
</style><style
     type="text/css"
     id="style883">
	.st0{display:none;}
	.st1{fill:#2991C9;}
	.st2{fill:#006699;}
	.st3{fill:#002A44;}
	.st4{fill:#FFFFFF;}
	.st5{fill:#214478;}
</style></svg>
