<?xml version="1.0" encoding="UTF-8" standalone="no"?>
<!-- Created with Inkscape (http://www.inkscape.org/) -->

<svg
   width="24"
   height="24"
   viewBox="0 0 6.3499998 6.3499999"
   version="1.1"
   id="svg1899"
   xml:space="preserve"
   inkscape:version="1.3 (0e150ed6c4, 2023-07-21)"
   sodipodi:docname="grub-icon.svg"
   xmlns:inkscape="http://www.inkscape.org/namespaces/inkscape"
   xmlns:sodipodi="http://sodipodi.sourceforge.net/DTD/sodipodi-0.dtd"
   xmlns:xlink="http://www.w3.org/1999/xlink"
   xmlns="http://www.w3.org/2000/svg"
   xmlns:svg="http://www.w3.org/2000/svg"><sodipodi:namedview
     id="namedview1901"
     pagecolor="#ffffff"
     bordercolor="#666666"
     borderopacity="1.0"
     inkscape:showpageshadow="2"
     inkscape:pageopacity="0.0"
     inkscape:pagecheckerboard="0"
     inkscape:deskcolor="#d1d1d1"
     inkscape:document-units="mm"
     showgrid="false"
     inkscape:zoom="17.158845"
     inkscape:cx="-2.5934146"
     inkscape:cy="1.7775089"
     inkscape:window-width="3440"
     inkscape:window-height="1358"
     inkscape:window-x="2560"
     inkscape:window-y="0"
     inkscape:window-maximized="1"
     inkscape:current-layer="layer1" /><defs
     id="defs1896"><style
       id="style125">.cls-1{fill:#2b91c9;}.cls-2{fill:#02679a;}.cls-3{fill:#fff;stroke:#231f20;}.cls-3,.cls-5{stroke-miterlimit:10;}.cls-4{font-size:37.88px;font-family:Lato-Bold, Lato;font-weight:700;}.cls-4,.cls-6{fill:#002b44;}.cls-5{fill:none;stroke:#002b44;stroke-width:6px;}</style><style
       id="style2805">.cls-1{fill:#069;}.cls-2{fill:#2991c9;}.cls-3{fill:#fff;}.cls-4{fill:#002a44;}.cls-5{fill:#3380cc;}.cls-6{fill:#cc5e55;}</style><linearGradient
       id="linearGradient31395"
       x1="12"
       x2="12"
       y1="0"
       y2="12"
       gradientTransform="matrix(0.24253411,0,0,0.24253411,0.26444367,16.139642)"
       gradientUnits="userSpaceOnUse"
       spreadMethod="pad"><stop
         id="stop31391"
         offset="0"
         style="stop-opacity:1;stop-color:#fff" /><stop
         id="stop31393"
         offset="1"
         style="stop-opacity:1;stop-color:#d9d9d9" /></linearGradient><linearGradient
       xlink:href="#a"
       id="linearGradient8909"
       x1="13.229"
       x2="2.1170001"
       y1="297"
       y2="280.07001"
       gradientTransform="matrix(0.26279475,0,0,0.20708408,0.939132,-41.1572)"
       gradientUnits="userSpaceOnUse" /><linearGradient
       id="a"
       x1="13.229"
       x2="2.1170001"
       y1="297"
       y2="280.07001"
       gradientTransform="matrix(0.99324,0,0,0.78268,-16.45,-215.555)"
       gradientUnits="userSpaceOnUse"><stop
         id="stop3327"
         offset="0"
         stop-color="#66bcff"
         style="stop-color:#222222;stop-opacity:1;" /><stop
         id="stop3329"
         offset="1"
         stop-color="#b29aff"
         style="stop-color:#555555;stop-opacity:1;" /></linearGradient><radialGradient
       id="paint0_radial_3_321"
       cx="0"
       cy="0"
       r="1"
       gradientUnits="userSpaceOnUse"
       gradientTransform="matrix(0,5.8208333,-5.8208333,0,10.522302,-5.813672)"><stop
         stop-color="#555555"
         id="stop180" /><stop
         offset="1"
         stop-color="#222222"
         id="stop182" /></radialGradient><radialGradient
       id="a-6"
       cx="0"
       cy="0"
       r="1"
       gradientTransform="matrix(0,2.91036,-2.91036,0,-23.282868,0.2646731)"
       gradientUnits="userSpaceOnUse"><stop
         stop-color="#6EBBF7"
         id="stop1" /><stop
         offset="1"
         stop-color="#2196F3"
         id="stop2" /></radialGradient><radialGradient
       inkscape:collect="always"
       xlink:href="#paint0_radial_3_321"
       id="radialGradient26"
       gradientUnits="userSpaceOnUse"
       gradientTransform="matrix(0,5.8208333,-5.8208333,0,3.1749982,0.2645873)"
       cx="0"
       cy="0"
       r="1" /></defs><g
     inkscape:label="Camada 1"
     inkscape:groupmode="layer"
     id="layer1"><g
       id="Layer_3_1_"
       transform="matrix(0.15188801,0,0,0.15188801,137.87467,77.290052)">&#10;</g><g
       id="Layer_2_1_"
       class="st0"
       transform="matrix(0.15188801,0,0,0.15188801,137.87467,77.290052)">&#10;	&#10;		<image
   style="display:inline;overflow:visible;enable-background:new"
   width="352"
   height="331"
   xlink:href="file:///mnt/sda3/Users/Ruscher/Documents/BigLinux/icons/88479F1F.jpg"
   transform="matrix(0.9984,0,0,0.9984,80.2871,51.27)"
   id="image225">&#10;	</image>&#10;</g><g
       id="Layer_3_1_-3"
       transform="matrix(0.15188801,0,0,0.15188801,141.78216,-19.267891)">&#10;</g><g
       id="Layer_2_1_-6"
       class="st0"
       transform="matrix(0.15188801,0,0,0.15188801,141.78216,-19.267891)">&#10;	&#10;		<image
   style="display:inline;overflow:visible;enable-background:new"
   width="352"
   height="331"
   xlink:href="file:///mnt/sda3/Users/Ruscher/Documents/BigLinux/icons/88479F1F.jpg"
   transform="matrix(0.9984,0,0,0.9984,80.2871,51.27)"
   id="image886">&#10;	</image>&#10;</g><path
       fill-rule="evenodd"
       clip-rule="evenodd"
       d="m 2.53895,0.2946413 c 0.031708,3.36e-4 0.062016,-0.0037 0.090924,-0.012118 0.3798912,-0.024885 0.7597272,-0.023876 1.1395632,0.00303 0.344408,0.026834 0.677809,0.1015577 1.000177,0.2241708 0.53594,0.2206466 0.902679,0.6033558 1.100164,1.1481223 0.112951,0.3279855 0.179626,0.6652551 0.200052,1.0118037 0.02823,0.4351602 0.01812,0.8693679 -0.03032,1.3026231 -0.03625,0.304509 -0.115068,0.5973498 -0.236406,0.8784961 C 5.5780492,5.3382646 5.2133472,5.6745235 4.7089982,5.8595466 4.3002972,5.9976318 3.8800332,6.0703393 3.4481802,6.0776418 2.9624312,6.1029098 2.4815592,6.0665558 2.0055315,5.968607 1.1293426,5.7734239 0.5888518,5.2392301 0.3840617,4.3660787 0.2971537,3.9730137 0.2577546,3.5751597 0.2658591,3.1725168 0.2561591,2.7443681 0.3016231,2.3222756 0.4022465,1.9062501 0.6169294,1.0898438 1.1351926,0.583942 1.9570387,0.3885499 2.1485414,0.3417319 2.3425128,0.3104289 2.53895,0.2946413 Z"
       fill="url(#paint0_radial_3_321)"
       id="path17"
       style="fill:url(#radialGradient26);stroke-width:0.264583" /><path
       d="m 4.882466,3.0136731 a 2.249,2.249 0 0 0 -2.249,2.2489995 2.249,2.249 0 0 0 0.152,0.810001 c 0.22,0.015 0.44,0.016 0.662,0.004 0.433,-0.007 0.854,-0.08 1.262,-0.218 0.504,-0.184999 0.869,-0.519999 1.094,-1.007999 0.121,-0.281 0.2,-0.574 0.237,-0.878 0.023,-0.204001 0.036,-0.408 0.042,-0.6130005 a 2.249,2.249 0 0 0 -1.2,-0.346001 z"
       style="fill:#006699;fill-opacity:1;stroke-width:0.531281;paint-order:markers stroke fill"
       id="path3" /><g
       id="g19"
       transform="matrix(1.5075072,0,0,1.5075072,-4.9164137,-0.10973646)"
       style="stroke-width:0.663346"><path
         d="M 4.9242391,3.2954719 H 4.2968268 c -0.024798,0 -0.0449,0.019267 -0.0449,0.043028 0,0.023768 0.020102,0.043035 0.0449,0.043035 h 0.6274123 c 0.024802,0 0.0449,-0.019267 0.0449,-0.043035 0,-0.023761 -0.020099,-0.043028 -0.0449,-0.043028 z"
         fill="#fafafa"
         id="path18"
         style="fill:#00ff00;fill-opacity:1;stroke-width:0.175511" /><path
         d="m 4.0284422,2.514603 c -0.00875,-0.00106 -0.017627,3.703e-4 -0.025526,0.00413 -0.0079,0.00376 -0.014463,0.00968 -0.018867,0.017016 -0.00297,0.0049 -0.0049,0.010311 -0.00568,0.015928 -7.787e-4,0.00562 -3.985e-4,0.011328 0.00113,0.016803 0.00153,0.00547 0.00417,0.010604 0.00777,0.015094 0.0036,0.00449 0.00809,0.00825 0.013218,0.011065 l 0.4815284,0.2667992 -0.4815328,0.26696 c -0.00512,0.00281 -0.00962,0.00658 -0.013218,0.011063 -0.0036,0.0045 -0.00625,0.00962 -0.00777,0.015097 -0.00153,0.00547 -0.00191,0.011184 -0.00113,0.0168 7.787e-4,0.00561 0.00271,0.011029 0.00568,0.015928 0.012539,0.020659 0.039818,0.027654 0.061335,0.01578 L 4.5887602,2.9017865 c 0.00659,-0.00377 0.012055,-0.00914 0.015826,-0.015557 0.00378,-0.00642 0.00574,-0.013678 0.00569,-0.021051 3.321e-4,-0.0013 1.689e-4,-0.00244 3.321e-4,-0.00358 0,-0.0013 0,-0.00244 -3.321e-4,-0.00375 2.02e-5,-0.00735 -0.00197,-0.01457 -0.00573,-0.020957 -0.00377,-0.00638 -0.00921,-0.011725 -0.015788,-0.015483 L 4.0453851,2.5199714 c -0.00522,-0.00285 -0.010979,-0.00468 -0.016943,-0.00537 z"
         fill="#fafafa"
         id="path19"
         style="fill:#00ff00;fill-opacity:1;stroke-width:0.175511" /></g><text
       xml:space="preserve"
       style="font-weight:800;font-size:0.0412253px;line-height:2;font-family:LATO;-inkscape-font-specification:'LATO Ultra-Bold';text-align:end;letter-spacing:0px;word-spacing:0px;text-anchor:end;fill:#00ff00;fill-opacity:1;stroke-width:0.500002;stroke-linejoin:round;paint-order:stroke markers fill"
       x="5.1440439"
       y="2.8989496"
       id="text19"><tspan
         sodipodi:role="line"
         id="tspan19"
         style="font-style:normal;font-variant:normal;font-weight:normal;font-stretch:normal;font-size:1.85759px;font-family:Ubuntu;-inkscape-font-specification:Ubuntu;font-variant-ligatures:normal;font-variant-caps:normal;font-variant-numeric:normal;font-variant-east-asian:normal;fill:#00ff00;fill-opacity:1;stroke-width:0.500002"
         x="5.1440439"
         y="2.8989496">grub</tspan></text><path
       id="path23"
       style="fill:#000000;fill-opacity:0.298039;stroke-width:0.264583"
       d="m 3.1995732,0.26487096 c -0.189925,-5.0488e-4 -0.379529,0.005127 -0.569475,0.01757 -0.0289,0.008418 -0.05924,0.0127384 -0.09095,0.0124024 -0.196437,0.0157876 -0.390375,0.0467164 -0.5818774,0.0935343 C 1.3860511,0.52418396 0.9613544,0.81039485 0.6834474,1.2462064 H 5.6681556 C 5.4574766,0.9156389 5.1582386,0.66986026 4.7695026,0.50981727 4.4471336,0.3872043 4.1139706,0.31237553 3.7695636,0.28554156 3.5796456,0.27208856 3.3894966,0.26537586 3.1995732,0.26487096 Z" /><rect
       id="rect23"
       width="0.5887841"
       height="0.29408699"
       x="1.412393"
       y="0.76887923"
       opacity="0.35"
       ry="0.14765364"
       style="stroke-width:0.24134;paint-order:stroke markers fill" /><rect
       id="rect24"
       width="0.29408699"
       height="0.29408699"
       x="4.6880403"
       y="0.76887923"
       opacity="0.35"
       ry="0.14765364"
       style="stroke-width:0.24134;paint-order:stroke markers fill" /><rect
       id="rect25"
       width="0.44174066"
       height="0.29408699"
       x="4.0992594"
       y="0.76887923"
       opacity="0.35"
       ry="0.14765364"
       style="stroke-width:0.24134;paint-order:stroke markers fill" /><rect
       id="rect26"
       width="0.29408699"
       height="0.29408699"
       x="3.6575172"
       y="0.76887923"
       opacity="0.35"
       ry="0.14765364"
       style="stroke-width:0.24134;paint-order:stroke markers fill" /><path
       id="path30"
       style="fill:#f2f2f2;fill-opacity:1;stroke-width:0.531281;paint-order:markers stroke fill"
       d="m 4.8829053,3.8566121 v 0.4185791 a 1.1166283,1.1166283 0 0 0 -1.1167277,1.116211 v 5.167e-4 a 1.1166283,1.1166283 0 0 0 0.205156,0.6428549 c 0.155281,-0.02228 0.309066,-0.053629 0.460954,-0.093534 -0.154845,-0.123528 -0.247531,-0.3161235 -0.247531,-0.5493205 0,-0.4110583 0.286949,-0.6981486 0.6981487,-0.6981486 v 0.4185791 l 0.837158,-0.6278686 z" /></g><style
     type="text/css"
     id="style222">&#10;	.st0{display:none;}&#10;	.st1{fill:#D8D8D8;}&#10;	.st2{fill:#999999;}&#10;	.st3{fill:#CC5E55;}&#10;	.st4{fill:#FFC328;}&#10;	.st5{fill:#006699;}&#10;	.st6{fill:#33CC33;}&#10;	.st7{fill:#002A44;}&#10;	.st8{fill:#FFFFFF;}&#10;	.st9{fill:#2991C9;}&#10;</style><style
     type="text/css"
     id="style883">&#10;	.st0{display:none;}&#10;	.st1{fill:#2991C9;}&#10;	.st2{fill:#006699;}&#10;	.st3{fill:#002A44;}&#10;	.st4{fill:#FFFFFF;}&#10;	.st5{fill:#214478;}&#10;</style></svg>
